<svg width="14" height="34" viewBox="0 0 14 34" fill="none" xmlns="http://www.w3.org/2000/svg">
<path fill-rule="evenodd" clip-rule="evenodd" d="M4.06506 11.4401C4.1057 11.3993 4.15397 11.367 4.20713 11.3449C4.26028 11.3229 4.31726 11.3115 4.37481 11.3115C4.43235 11.3115 4.48933 11.3229 4.54248 11.3449C4.59564 11.367 4.64392 11.3993 4.68456 11.4401L9.93456 16.6901C9.9753 16.7307 10.0076 16.779 10.0297 16.8321C10.0517 16.8853 10.0631 16.9423 10.0631 16.9998C10.0631 17.0574 10.0517 17.1143 10.0297 17.1675C10.0076 17.2206 9.9753 17.2689 9.93456 17.3096L4.68456 22.5596C4.6024 22.6417 4.49098 22.6879 4.37481 22.6879C4.25863 22.6879 4.14721 22.6417 4.06506 22.5596C3.9829 22.4774 3.93675 22.366 3.93675 22.2498C3.93675 22.1336 3.9829 22.0222 4.06506 21.9401L9.00618 16.9998L4.06506 12.0596C4.02431 12.0189 3.99199 11.9706 3.96993 11.9175C3.94788 11.8643 3.93652 11.8074 3.93652 11.7498C3.93652 11.6923 3.94788 11.6353 3.96993 11.5821C3.99199 11.529 4.02431 11.4807 4.06506 11.4401Z" fill="white"/>
</svg>
