<svg width="49" height="48" viewBox="0 0 49 48" fill="none" xmlns="http://www.w3.org/2000/svg">
<g id="icons8-fishing 1">
<path id="Vector" d="M30.5 6C28.0332 6 26 8.0332 26 10.5C26 12.4395 27.2656 14.0918 29 14.7188V31.5938C29 35.707 25.707 39 21.5938 39H21.4062C17.293 39 14 35.707 14 31.5938C14 29.6484 14.7441 27.7793 16.1094 26.3906L18.5 28.7812V19.7812L14 24.2812C12.0723 26.2324 11 28.8516 11 31.5938C11 37.3301 15.6699 42 21.4062 42H21.5938C27.3301 42 32 37.3301 32 31.5938V14.7188C33.7344 14.0918 35 12.4395 35 10.5C35 8.0332 32.9668 6 30.5 6ZM30.5 9C31.3438 9 32 9.65625 32 10.5C32 11.3438 31.3438 12 30.5 12C29.6562 12 29 11.3438 29 10.5C29 9.65625 29.6562 9 30.5 9Z" fill="#3B82F6"/>
</g>
</svg>
