<svg width="187" height="40" viewBox="0 0 187 40" fill="none" xmlns="http://www.w3.org/2000/svg">
<g id="logo 1">
<path id="Vector" fill-rule="evenodd" clip-rule="evenodd" d="M56.553 20.2459C56.5884 20.9059 56.6607 21.459 56.6607 22.0997C56.6607 22.279 57.6584 22.1897 58.0145 22.1713C58.5853 22.1536 59.1553 22.2251 59.743 22.1897C60.4207 22.1536 60.6707 22.2251 60.6522 22.9559C60.6522 23.3482 60.8307 24.2744 60.4753 24.3997C60.1353 24.5244 59.1191 24.4528 58.6922 24.4351H56.7307C56.3568 24.4528 55.9822 24.4351 55.5907 24.4351C55.2876 24.4351 54.8599 24.5244 54.5568 24.4528C54.0576 24.3105 54.2722 23.7751 54.2537 23.3297C54.2537 22.7059 54.3076 22.0821 54.3253 21.4405C54.343 20.1751 54.3076 18.9097 54.3076 17.6444C54.3076 16.8059 54.2714 16.0044 54.2891 15.1667C54.2891 14.5782 54.0222 13.4559 54.3076 12.9036C54.503 12.529 55.2522 12.6536 55.6799 12.6536C55.8222 12.6359 56.6245 12.5997 56.6245 12.8321C56.6245 15.2736 56.3568 17.8221 56.553 20.2459ZM67.8376 14.9882C67.1607 14.7382 66.376 14.899 65.8768 15.4344C65.306 16.0044 65.4491 17.0197 65.4491 17.7682C65.4491 18.6067 65.4314 19.4451 65.4314 20.2813C65.4314 20.9413 65.6276 21.779 66.2699 22.0997C66.8391 22.3851 67.8199 22.349 68.3184 21.9574C68.9784 21.4582 68.8537 20.3528 68.8891 19.6221C68.9068 18.6605 68.8176 17.7328 68.8176 16.7882C68.8176 15.9505 68.6753 15.3267 67.8376 14.9882ZM71.2953 17.0197C71.3137 17.6621 71.2422 18.3213 71.2599 18.9628C71.2776 19.7297 71.2599 20.5136 71.2422 21.2797C71.206 22.5105 70.743 23.6336 69.6022 24.1859C68.7822 24.5782 67.8914 24.5951 67.0714 24.5951C65.9307 24.5951 64.5761 24.399 63.7914 23.4721C63.1322 22.6882 63.0961 21.5474 63.0961 20.5667C63.1137 19.2667 63.0076 17.929 63.0614 16.6459C63.1137 15.5228 63.1322 14.2574 64.0237 13.419C64.9507 12.5282 66.3761 12.5113 67.5699 12.5282C68.5507 12.5282 69.8876 12.8851 70.5114 13.5444C71.3314 14.4174 71.2414 15.8967 71.2953 17.0197ZM81.4214 12.6536C81.7253 12.6536 81.8499 12.5459 81.9568 12.8321C82.0637 13.0997 81.8491 13.7051 81.7784 13.9367C81.2622 15.559 80.8337 17.2167 80.3707 18.839C79.9245 20.4959 79.5684 22.1713 79.0514 23.8113C78.9437 24.1859 78.9976 24.2744 78.6414 24.3821C78.303 24.5067 77.6968 24.4528 77.3045 24.4528C76.3422 24.4351 76.3068 23.8828 76.1276 23.0628C75.8076 21.4767 75.273 19.9259 74.8268 18.3574C74.3807 16.8067 74.0961 15.2021 73.5976 13.6697C73.3653 12.9744 73.2591 12.6359 74.0968 12.6182C74.8091 12.6182 75.5937 12.4936 75.8784 13.2413C76.146 13.9721 76.2168 14.7928 76.4491 15.5413L77.0184 17.7159C77.0907 18.0005 77.5184 20.139 77.733 20.0851C77.8391 20.0682 78.1961 18.3036 78.2314 18.179C78.4814 17.2528 78.7484 16.3251 78.9807 15.3982C79.0868 14.8982 79.1945 14.4182 79.3191 13.9197C79.3545 13.7767 79.6753 12.779 79.693 12.7605C79.943 12.3859 81.066 12.6528 81.4222 12.6528M93.8314 14.9528C93.2791 15.0421 93.2622 15.2913 93.2968 15.7728C93.3507 16.4144 93.3322 17.0921 93.2968 17.7513C93.2968 17.9467 93.2968 18.7313 93.4584 18.8913C93.6176 19.0697 94.4022 18.9451 94.6507 18.9267C95.9699 18.8197 95.8099 17.3767 95.8099 16.3782C95.8099 15.1844 94.9184 14.7928 93.8314 14.9528ZM97.593 22.8136C97.753 23.1336 98.3584 24.0605 98.0199 24.3459C97.8591 24.489 97.1999 24.3636 96.986 24.3821C96.7014 24.399 96.3268 24.5413 96.0414 24.4713C95.543 24.3282 95.3291 23.3651 95.1322 22.9382C94.9184 22.5105 94.7045 21.4936 94.2414 21.2628C93.4214 20.8705 93.493 21.9397 93.4753 22.3674C93.4576 22.7951 93.6714 24.0959 93.2791 24.3636C93.1007 24.4713 92.6907 24.399 92.4945 24.399C92.1737 24.399 91.746 24.489 91.443 24.399C90.8907 24.2574 91.0507 23.3651 91.0691 22.8667L91.1045 20.2282C91.1584 18.6959 91.1045 17.0913 91.1584 15.5228C91.1753 14.8636 91.1399 14.2213 91.1222 13.5797C91.1045 13.3836 91.033 12.9567 91.1399 12.7967C91.3184 12.5644 91.7099 12.6536 91.9784 12.6536C92.7437 12.6182 93.5284 12.5644 94.2953 12.5997C95.0968 12.6182 96.0061 12.5644 96.7184 13.0105C97.9837 13.7936 98.1807 15.3982 98.1622 16.7521C98.1268 18.2859 98.3237 20.1044 96.666 20.8705C96.7184 21.1905 96.986 21.5113 97.1291 21.779C97.2891 22.1174 97.3968 22.4751 97.593 22.8136ZM105.527 8.99975C105.758 9.21359 105.509 9.44513 105.365 9.62282C105.17 9.85513 105.063 10.0513 104.902 10.319C104.76 10.5497 104.671 10.7113 104.404 10.7644C104.315 10.7997 103.745 10.7997 103.691 10.7467C103.441 10.5151 103.887 9.37436 103.94 9.12359C103.923 9.15975 103.976 9.07129 103.958 9.12359C104.011 8.89282 105.365 8.85667 105.527 8.99975ZM107.024 12.689C107.185 12.689 107.647 12.5644 107.791 12.6351C108.111 12.7967 107.861 13.1528 107.755 13.4197C107.184 14.6897 106.632 15.9675 106.097 17.2528C105.848 17.8405 105.58 18.3036 105.455 18.9451C105.348 19.5682 105.401 20.1936 105.384 20.8167C105.384 21.4936 105.402 22.1705 105.402 22.849C105.402 23.2944 105.616 24.149 105.17 24.3821C104.938 24.489 104.511 24.3821 104.261 24.3821C103.976 24.3821 103.531 24.4713 103.281 24.3459C102.8 24.0967 102.995 23.4551 103.013 22.9913C103.013 22.3144 103.085 21.6367 103.031 20.9597C102.978 20.2821 103.228 19.4974 103.031 18.839C102.639 17.4836 101.765 16.2897 101.302 14.9713C101.088 14.3467 100.625 13.759 100.464 13.1344C100.287 12.4751 100.75 12.6359 101.195 12.6536C101.765 12.689 102.408 12.4397 102.782 12.9382C103.21 13.4913 103.441 14.2574 103.762 14.8813C103.833 15.0244 104.047 15.6659 104.244 15.6836C104.315 15.6836 104.493 15.149 104.547 15.0421C104.938 14.2936 105.384 13.509 105.723 12.7251C105.9 12.4221 106.739 12.7074 107.024 12.689ZM114.494 16.5567C115.064 16.2536 114.868 15.4344 114.405 15.1305C114.101 14.9528 112.997 14.8813 112.836 15.2021C112.782 15.309 112.818 16.539 112.89 16.6105C113.068 16.789 114.28 16.6636 114.494 16.5567ZM113.638 18.999C113.264 18.9813 112.997 18.8567 112.836 19.2305C112.694 19.5867 112.89 20.4244 112.871 20.8167C112.854 21.1197 112.711 21.9044 112.978 22.0821C113.157 22.1897 113.727 22.1182 113.923 22.0821C114.725 21.9574 115.474 21.4051 115.474 20.5313C115.474 19.3728 114.583 19.0882 113.638 18.999ZM117.827 20.7097C117.845 21.8328 117.702 23.1697 116.686 23.8644C115.67 24.5597 114.298 24.4528 113.139 24.4528C112.533 24.4322 111.927 24.4204 111.321 24.4174C110.751 24.4174 110.519 24.4174 110.519 23.7751C110.501 22.599 110.465 21.4051 110.501 20.2282C110.519 18.9813 110.626 17.7159 110.555 16.4674C110.537 15.9328 110.572 15.3982 110.555 14.8636C110.537 14.3821 110.323 13.4736 110.501 13.0274C110.68 12.5113 111.215 12.6713 111.625 12.689C112.177 12.7074 112.747 12.6536 113.282 12.6359C114.458 12.5997 116.062 12.7074 116.758 13.8121C117.541 15.0421 117.417 16.4321 116.9 17.4659C117.809 18.3213 117.809 19.569 117.827 20.7097ZM134.301 12.6174C134.568 12.6174 135.031 12.4574 135.262 12.6528C135.531 12.8667 135.406 13.5797 135.424 13.9005C135.477 14.8813 135.388 15.879 135.424 16.8597C135.441 17.8405 135.388 18.8028 135.406 19.7651C135.441 21.6544 135.191 23.7751 133.071 24.3636C131.68 24.7559 129.452 24.7197 128.348 23.7036C126.938 22.3851 127.225 20.5497 127.171 18.7851C127.153 17.8928 127.225 16.9851 127.241 16.0928C127.26 15.5774 127.205 15.0774 127.189 14.5597C127.189 14.0967 127.045 13.4551 127.153 12.9921C127.241 12.6705 127.33 12.6351 127.651 12.5997C128.079 12.5644 128.632 12.6174 129.078 12.6174C129.559 12.6351 129.648 12.7421 129.612 13.2767C129.595 13.8651 129.559 14.4359 129.595 15.0413C129.631 15.8967 129.595 16.7705 129.595 17.6259C129.595 18.0721 129.612 18.5182 129.612 18.9628C129.631 19.569 129.452 20.1936 129.577 20.799C129.755 21.7436 130.7 22.3313 131.645 22.1528C132.893 21.9036 133.052 20.9951 133.018 19.8721C132.928 17.519 133.018 15.1305 133.018 12.7782C133.018 12.3859 134.087 12.5997 134.3 12.6174M142.733 14.8813C142.252 14.8274 141.735 14.7921 141.254 14.8274C140.844 14.8459 140.826 14.8813 140.826 15.2913C140.844 15.6836 140.934 16.0574 140.934 16.4497C140.915 16.9136 140.861 17.3767 140.88 17.8582C140.897 18.9097 140.88 19.979 140.844 21.049C140.844 21.2444 140.791 21.9221 140.898 22.0821C141.021 22.2782 141.272 22.1359 141.521 22.1359C142.377 22.1536 143.178 22.2782 143.874 21.6367C144.428 21.1374 144.338 20.2997 144.338 19.6228C144.338 18.6597 144.302 17.6797 144.302 16.6997C144.302 15.6482 143.785 15.0059 142.733 14.8813ZM146.691 17.6082C146.708 18.1251 146.601 18.6421 146.655 19.159C146.673 19.5513 146.673 20.139 146.673 20.6028C146.691 21.9928 146.298 23.1874 145.104 23.9721C144.105 24.649 142.555 24.4167 141.397 24.3813C140.72 24.3459 140.025 24.4528 139.329 24.4167C138.455 24.3997 138.581 24.2567 138.598 23.4367C138.615 22.1182 138.491 20.799 138.509 19.4797C138.545 18.2674 138.545 17.0913 138.563 15.8797C138.563 15.2374 138.581 14.5959 138.581 13.9721C138.562 13.4728 138.296 12.7597 138.937 12.6705C139.578 12.5821 140.256 12.7067 140.897 12.6705C141.593 12.6536 142.27 12.7067 142.948 12.6705C144.035 12.6359 145.229 12.8859 145.888 13.6151C146.868 14.6851 146.636 16.289 146.691 17.6082ZM149.866 19.8544C149.92 18.5005 149.778 17.1451 149.812 15.7728C149.831 15.1305 149.795 14.5074 149.831 13.8651C149.831 13.6159 149.741 13.2059 149.813 12.9744C149.938 12.6359 149.92 12.6897 150.258 12.6174C150.668 12.5644 151.257 12.6174 151.684 12.6174C152.253 12.6174 152.272 12.9744 152.237 13.4374C152.129 15.6836 152.148 17.9121 152.201 20.1574C152.201 20.8705 152.237 21.5836 152.201 22.3144C152.201 22.8305 152.289 23.4551 152.201 23.9713C152.059 24.6136 151.506 24.4351 150.971 24.4174C150.865 24.4174 149.831 24.5059 149.831 24.2567C149.831 22.7951 149.813 21.3336 149.866 19.8544ZM162.718 19.569C163.252 19.6044 163.359 19.6228 163.359 20.1751C163.359 20.5313 163.342 20.9059 163.324 21.2805C163.199 23.1159 161.952 24.3813 160.08 24.4528C158.245 24.5059 156.338 24.4713 155.446 22.5282C155.089 21.7259 155.197 20.7451 155.178 19.8897C155.161 18.9274 155.178 17.9651 155.232 17.0205C155.268 16.2713 155.143 15.559 155.338 14.8274C155.606 13.7767 156.284 13.1344 157.246 12.7251C157.995 12.3859 158.815 12.4044 159.617 12.4044C160.578 12.4213 161.791 12.6359 162.468 13.4021C163.056 14.079 163.252 14.9705 163.324 15.8444C163.359 16.129 163.431 16.5036 163.181 16.6636C163.11 16.6997 162.647 16.6459 162.593 16.6282C162.237 16.6282 161.88 16.6459 161.524 16.6636C161.203 16.6821 161.114 16.7705 160.97 16.4674C160.811 16.1113 160.989 15.719 160.704 15.3451C160.223 14.7036 158.887 14.6144 158.209 15.0059C157.478 15.4344 157.531 16.789 157.549 17.4836C157.549 18.0721 157.585 18.6597 157.603 19.2482C157.638 19.8005 157.531 20.4605 157.656 20.9951C157.87 21.9044 158.992 22.3674 159.848 22.1359C160.758 21.8859 161.114 20.7636 161.025 19.6759C161.025 19.3197 162.433 19.5513 162.718 19.569ZM171.311 15.0421C170.545 14.7036 169.511 14.739 169.03 15.5059C168.531 16.2897 168.817 17.0382 168.781 17.8751C168.745 18.7674 168.656 19.6751 168.727 20.5674C168.852 22.0113 170.349 22.7774 171.542 21.8328C172.15 21.3697 172.202 20.6382 172.185 19.9251C172.15 18.8744 172.15 17.8044 172.15 16.7528C172.15 16.0582 171.971 15.3451 171.311 15.0421ZM174.556 20.1397C174.591 21.1551 174.538 22.3859 173.931 23.2413C173.326 24.1144 172.114 24.5244 171.098 24.5951C170.064 24.649 168.763 24.5605 167.855 24.0428C166.82 23.4374 166.481 22.4213 166.392 21.2982C166.285 20.0328 166.338 18.749 166.321 17.5013C166.303 16.2721 166.25 14.9167 166.928 13.8474C167.568 12.8144 168.924 12.5113 170.081 12.4574C170.67 12.4397 171.401 12.4936 171.989 12.6359C174.003 13.1705 174.556 14.5428 174.52 16.4505C174.52 17.6797 174.52 18.9274 174.556 20.1397Z" fill="#231F20"/>
<path id="Vector_2" fill-rule="evenodd" clip-rule="evenodd" d="M184.753 12.5636C185.181 12.5459 185.447 12.4744 185.52 12.9197C185.591 13.4013 185.412 13.9182 185.431 14.3997C185.484 15.629 185.538 17.0905 185.484 18.3559C185.377 20.0497 186.001 22.5805 184.325 23.7744C182.827 24.8436 179.905 24.9336 178.461 23.739C176.911 22.4197 177.249 19.8359 177.302 18.0174C177.337 17.1097 177.374 16.1821 177.356 15.2728C177.356 14.8805 177.321 14.5067 177.337 14.1144C177.356 13.7574 177.177 13.0459 177.427 12.7413C177.606 12.5459 177.909 12.6167 178.14 12.5997C178.479 12.5997 178.996 12.4921 179.334 12.5636C179.994 12.6882 179.727 14.5251 179.727 15.0413C179.705 16.0156 179.711 16.9903 179.744 17.9644C179.798 19.0336 179.424 20.2644 179.905 21.2974C180.351 22.2244 181.884 22.4559 182.614 21.7074C183.327 20.9944 183.166 19.6928 183.095 18.7844C182.935 16.7521 183.149 14.7382 183.149 12.7413C183.149 12.4744 184.521 12.5805 184.753 12.5636Z" fill="#231F20"/>
<path id="Vector_3" fill-rule="evenodd" clip-rule="evenodd" d="M32.2322 20.7396L31.8153 20.8165C31.6254 20.5043 31.4279 20.1967 31.223 19.8942C30.7183 19.1367 30.1448 18.4272 29.5099 17.775C29.433 17.6873 29.3445 17.6103 29.2568 17.5111C29.1576 17.4234 29.0592 17.325 28.9392 17.215L28.8292 17.1165C28.7307 17.018 28.6207 16.9196 28.5215 16.8303C29.4322 17.0611 30.2015 17.588 30.783 18.0173C31.1561 18.3019 31.6392 18.2696 31.8807 17.9503C32.0238 17.7642 32.0892 17.555 32.0561 17.358C32.0245 17.1503 31.9038 16.9734 31.7169 16.8096C30.8707 16.1496 30.0253 15.6996 29.1361 15.425C28.3022 15.1727 27.5438 15.1065 26.8199 15.2173C26.6661 15.2388 26.523 15.2719 26.3584 15.3157C26.3253 15.3265 26.2922 15.3265 26.2592 15.348C25.9515 15.1842 25.733 15.0857 25.633 15.0411L25.5899 15.0188C25.5118 14.9803 25.4311 14.9474 25.3484 14.9203C24.2292 14.515 23.0538 14.3719 21.8899 14.5357C20.1661 14.7565 18.5407 15.5134 17.1022 16.7542L16.9276 16.8634C16.7192 16.995 16.5638 17.1711 16.4776 17.3796C16.4545 17.4127 16.4545 17.435 16.4545 17.435C16.4322 17.4565 16.4215 17.4896 16.4115 17.5119C16.3115 17.7203 16.2907 17.9503 16.3115 18.2042L16.3445 18.3788C16.3676 20.3003 16.8615 22.0134 17.8384 23.4734C18.4871 24.4502 19.3652 25.2531 20.3961 25.8119C20.463 25.8557 20.5392 25.8888 20.6376 25.9327L20.6822 25.9657C20.7807 25.9988 20.9999 26.0973 21.3292 26.2296C21.3292 26.2519 21.3522 26.285 21.3622 26.3173C21.4292 26.4603 21.5161 26.6027 21.593 26.7342C21.9776 27.3496 22.5368 27.8765 23.273 28.3373C24.063 28.8327 24.953 29.1619 26.0176 29.3588C26.5338 29.4573 26.8961 29.205 26.9838 28.7434C27.0607 28.3496 26.7761 27.9757 26.3145 27.8765C25.6007 27.7227 24.6999 27.4811 23.9215 26.9427C24.063 26.9657 24.2061 26.9873 24.3484 26.9873L24.4915 27.0088C24.6568 27.0203 24.7884 27.0419 24.9415 27.0419C25.0622 27.0634 25.1722 27.075 25.283 27.075C26.1499 27.1188 27.0399 27.0857 28.0061 26.965C28.3461 26.9319 28.7199 26.8773 29.093 26.8003L29.3338 27.1957C29.6307 27.7011 29.9815 28.305 30.3661 28.8973C30.443 29.018 30.5199 29.1388 30.6076 29.2596L30.773 29.535C30.9376 29.7873 31.1461 30.0065 31.3107 30.1819L31.3661 30.2373C31.4968 30.3796 31.6392 30.4896 31.8045 30.5665C31.9584 30.6319 32.1222 30.6757 32.2984 30.6757C32.5069 30.6757 32.6938 30.6219 32.8799 30.5119C33.3199 30.2703 33.5615 29.7873 33.5061 29.2373L33.463 28.9411C33.4299 28.6888 33.3961 28.4473 33.3745 28.2057C33.3745 28.085 33.363 27.965 33.3522 27.8442V27.5803C33.3522 27.2626 33.3861 26.965 33.4399 26.6473C33.4738 26.4934 33.5168 26.328 33.5615 26.1742C33.6384 25.9111 33.7261 25.6696 33.8253 25.4388L33.9022 25.285C34.0115 25.0542 34.1315 24.8242 34.2745 24.6042C34.5232 24.1959 34.8344 23.8291 35.1968 23.5173C35.2655 23.4617 35.3317 23.4032 35.3953 23.3419C35.4938 23.265 35.593 23.188 35.6915 23.1227C35.8884 22.9796 36.0861 22.8473 36.2945 22.705L36.5484 22.5288C36.9976 22.2219 37.2061 21.7165 37.1076 21.2334C37.0681 21.0492 36.986 20.8769 36.8679 20.7301C36.7498 20.5833 36.599 20.4661 36.4276 20.388C36.2573 20.3143 36.0746 20.2733 35.8892 20.2673H35.8015C35.703 20.2565 35.593 20.2565 35.483 20.2565C35.2845 20.2565 35.1315 20.2673 34.9553 20.2896L34.6707 20.3342C34.5053 20.355 34.363 20.3673 34.2192 20.388C33.5284 20.498 32.8468 20.6296 32.2322 20.7396ZM13.3584 13.7127C12.6249 13.7118 11.9217 13.42 11.4031 12.9013C10.8845 12.3825 10.5928 11.6792 10.5922 10.9457C10.5922 10.5073 10.7892 10.1442 11.0084 9.71573C11.3376 9.11188 11.7553 8.34342 11.5792 7.19034C11.4153 6.04803 10.5484 3.79803 9.98762 2.78727C9.97685 2.7765 9.96531 2.75496 9.95454 2.74342C13.3153 0.624958 17.1584 0.197266 21.2092 0.197266C26.3261 0.197266 31.3215 0.701112 35.2307 4.61034C39.1284 8.5188 42.5984 13.515 42.5984 18.6311C42.5984 23.748 39.9961 29.6111 36.0868 33.5196C32.1792 37.4188 26.3261 39.6796 21.2099 39.6796C16.0815 39.6796 10.1968 37.4396 6.29916 33.5419C2.38993 29.635 0.195312 23.7488 0.195312 18.6327C0.195312 13.5157 3.45608 8.69496 7.36454 4.7865C7.77212 4.37936 8.20476 3.9981 8.65993 3.64496C9.13224 4.54496 9.87916 6.51034 10.0215 7.42188C10.1207 8.0588 9.91147 8.45342 9.61531 8.99188C9.35223 9.48573 9.01147 10.1119 9.01147 10.9465C9.01228 12.0995 9.47071 13.205 10.286 14.0202C11.1014 14.8353 12.207 15.2936 13.3599 15.2942C13.991 15.2931 14.6137 15.1504 15.1822 14.8765C16.1484 14.4265 16.9284 13.625 17.3338 12.7027C17.4322 12.4834 17.4215 12.2527 17.4215 12.0334C17.4099 11.978 17.4099 11.9342 17.4099 11.8903L17.4215 8.75034C17.4215 8.33342 17.2015 8.04803 16.8068 7.92727C16.4222 7.8065 16.0484 7.95957 15.8738 8.31188L15.5876 8.86034C15.1677 9.66955 14.7614 10.4858 14.3692 11.3088C14.2261 11.6273 14.2815 11.9673 14.523 12.198C14.6661 12.3411 14.8745 12.4288 15.1268 12.4503C15.4238 12.4834 15.7961 12.1427 15.8845 12.1657C15.8622 12.1865 15.6207 12.5603 15.6099 12.5711L15.4561 12.7473C15.1983 13.0517 14.877 13.2959 14.5147 13.4629C14.1525 13.6298 13.758 13.7153 13.3592 13.7134" fill="#231F20"/>
<path id="Vector_4" fill-rule="evenodd" clip-rule="evenodd" d="M27.8429 22.6727C27.986 22.7604 28.1391 22.8496 28.2929 22.9365C28.5129 23.0681 28.6229 23.2658 28.6006 23.5073C28.5932 23.5858 28.5674 23.6615 28.5255 23.7283C28.4836 23.7951 28.4266 23.8511 28.3591 23.8919C28.216 23.9904 28.0191 23.9904 27.8322 23.9358C27.7059 23.883 27.5776 23.8353 27.4476 23.7927C27.1399 23.6827 26.8222 23.5735 26.5145 23.4742C25.3068 23.1127 24.3622 22.9258 23.4399 22.9035C23.2976 22.9035 23.1653 22.8811 23.056 22.8265C22.8468 22.7281 22.6714 22.5519 22.5399 22.3111C22.476 22.1656 22.4425 22.0085 22.4414 21.8496C22.4414 21.6296 22.5176 21.4211 22.6606 21.2235C22.9237 20.905 23.2753 20.7735 23.6814 20.8619C24.3737 21.0158 25.0868 21.2565 25.8445 21.6081C26.1299 21.7396 26.4268 21.8711 26.7453 22.0358C27.1183 22.2335 27.4806 22.4535 27.8429 22.6727Z" fill="#FEFEFE"/>
<path id="Vector_5" fill-rule="evenodd" clip-rule="evenodd" d="M21.0777 17.4901C21.5393 17.3032 22.0331 17.4901 22.2416 17.9293C22.4393 18.3686 22.2416 18.8955 21.8139 19.0932C21.3739 19.2909 20.8362 19.1147 20.6385 18.6762C20.4193 18.2478 20.6285 17.6993 21.0777 17.4901Z" fill="#231F20"/>
<path id="Vector_6" fill-rule="evenodd" clip-rule="evenodd" d="M22.2437 17.929C22.0353 17.4906 21.5407 17.3036 21.0799 17.4906C20.6291 17.6983 20.4207 18.2475 20.6407 18.676C20.8383 19.1152 21.376 19.2913 21.8153 19.0929C22.2437 18.8952 22.4414 18.3683 22.2437 17.929ZM22.5068 17.5229C22.5176 17.6229 22.5176 17.6875 22.5068 17.819C22.463 17.9075 22.5176 19.0498 21.9145 19.3013C21.4745 19.4783 20.6068 19.1706 20.4322 18.8075C19.9599 17.8083 21.7937 16.7106 22.5068 17.5229Z" fill="#231F20"/>
<path id="Vector_7" fill-rule="evenodd" clip-rule="evenodd" d="M31.9827 25.714C31.9288 25.9117 31.8727 26.1201 31.8288 26.3394C31.8288 26.3948 31.818 26.4278 31.8065 26.4717C31.7527 26.8224 31.7188 27.1855 31.708 27.5586C31.708 27.6686 31.708 27.7786 31.7188 27.8878V27.9648C31.4313 27.5093 31.1533 27.0479 30.885 26.5809L30.3465 25.6917C30.2927 25.6155 30.1388 25.3409 29.8311 25.2086C29.6897 25.1436 29.5359 25.1101 29.3803 25.1101C29.3034 25.1101 29.2157 25.1209 29.128 25.1332L28.9203 25.1755C28.5457 25.2309 28.1727 25.2855 27.8103 25.3409C26.9319 25.4394 26.1411 25.4724 25.3727 25.4286C25.1419 25.4178 24.9003 25.3955 24.5711 25.3624L24.0334 25.3086C22.8257 25.1209 21.508 24.5278 21.3542 24.4624C21.3016 24.4288 21.2466 24.3992 21.1896 24.374C20.3892 23.9454 19.7094 23.3224 19.2127 22.5624C18.4003 21.344 17.9942 19.9609 17.9942 18.3248L17.9727 18.1378L18.1265 18.0386C19.3557 16.974 20.6627 16.3486 22.1119 16.1617C23.012 16.0509 23.9256 16.1523 24.7796 16.4578C24.835 16.4909 24.9003 16.5132 24.9565 16.5348C25.1088 16.6009 26.4157 17.2048 27.3603 17.9948L27.788 18.3794L28.3373 18.9286C28.9008 19.5118 29.4115 20.1437 29.8634 20.8171C30.0719 21.1248 30.2696 21.4424 30.4673 21.7609L30.5773 21.9478C30.7196 22.1678 30.885 22.3324 31.0934 22.4201C31.3127 22.5186 31.6096 22.5186 31.8065 22.4971L32.828 22.3101C33.3537 22.2084 33.8807 22.1135 34.4088 22.0255C34.398 22.0355 34.3765 22.0578 34.355 22.0686C34.2665 22.1455 34.1896 22.2224 34.1019 22.2878C33.8273 22.5417 33.575 22.804 33.3442 23.0786L33.2565 23.1994C33.1258 23.3641 33.0051 23.5364 32.895 23.7155C32.7073 24.0009 32.5427 24.3086 32.3996 24.6048L32.3342 24.7586C32.2019 25.0663 32.0811 25.3848 31.9827 25.714ZM27.8319 23.9348C28.0188 23.9901 28.2165 23.9901 28.3596 23.8909C28.4268 23.85 28.4837 23.7941 28.5256 23.7275C28.5675 23.6608 28.5934 23.5854 28.6011 23.5071C28.6227 23.2655 28.5127 23.0686 28.2934 22.9363C28.1396 22.8478 27.9857 22.7601 27.8434 22.6724C27.4819 22.4532 27.1188 22.234 26.745 22.0355C26.4265 21.8709 26.1303 21.7394 25.845 21.6078C25.153 21.2816 24.4278 21.0314 23.6819 20.8617C23.2757 20.7732 22.9242 20.9048 22.6603 21.2232C22.5223 21.4032 22.4454 21.6226 22.4411 21.8494C22.4411 22.0032 22.4742 22.1571 22.5411 22.3109C22.6719 22.5517 22.8473 22.7278 23.0565 22.8263C23.1657 22.8809 23.2973 22.9032 23.4411 22.9032C24.3627 22.9263 25.3065 23.1117 26.515 23.474C26.8227 23.574 27.1403 23.6824 27.448 23.7924C27.5796 23.8363 27.6996 23.8801 27.8319 23.9348ZM22.5073 17.5232C21.7934 16.7101 19.9596 17.8086 20.4319 18.8078C20.6073 19.1701 21.475 19.4778 21.9142 19.3017C22.518 19.0494 22.4634 17.9078 22.5073 17.8194C22.5181 17.7209 22.5181 17.6216 22.5073 17.5232Z" fill="#FEFEFE"/>
<path id="Vector_8" fill-rule="evenodd" clip-rule="evenodd" d="M31.8271 26.3395C31.8709 26.1195 31.9255 25.9111 31.9809 25.7141C32.0794 25.3834 32.2002 25.0657 32.3317 24.7588L32.3978 24.6049C32.5409 24.308 32.7055 24.0011 32.8917 23.7157C33.0017 23.5388 33.1225 23.3641 33.2532 23.1995L33.3425 23.0788C33.5732 22.8041 33.8255 22.5403 34.1002 22.288C34.1878 22.2218 34.264 22.1449 34.3525 22.0688C34.3724 22.0568 34.3905 22.042 34.4063 22.0249C33.8255 22.1234 33.2655 22.2218 32.8263 22.3095L31.8048 22.4964C31.6071 22.5188 31.3109 22.5188 31.0909 22.4195C30.8825 22.3318 30.7178 22.1672 30.5755 21.948L30.4655 21.7611C30.2678 21.4426 30.0702 21.1241 29.8617 20.8164C29.4096 20.1433 28.8989 19.5113 28.3355 18.928L27.7863 18.3795L27.3578 17.9949C26.414 17.2049 25.1071 16.6003 24.9532 16.5334C24.8986 16.5126 24.8325 16.4911 24.7778 16.458C23.924 16.1522 23.0103 16.0507 22.1102 16.1618C20.6602 16.348 19.354 16.9741 18.124 18.0388L17.9702 18.1372L17.9925 18.3241C17.9925 19.9603 18.3986 21.3434 19.2109 22.5626C19.7074 23.3225 20.3869 23.9455 21.1871 24.3741C21.2425 24.3964 21.2978 24.4295 21.3525 24.4618C21.5063 24.528 22.8232 25.1211 24.0317 25.3072L24.5694 25.3611C24.8986 25.3949 25.1402 25.4172 25.3709 25.428C26.1394 25.4726 26.9302 25.4395 27.8078 25.3403L28.9171 25.1757L29.1248 25.1318C29.214 25.1211 29.3017 25.1088 29.3786 25.1088C29.5325 25.1088 29.6855 25.1426 29.8286 25.2088C30.1363 25.3395 30.2894 25.6149 30.344 25.6918L30.8825 26.5811C31.124 26.998 31.4102 27.4811 31.7171 27.9649V27.888C31.7063 27.778 31.7063 27.668 31.7063 27.5572C31.7171 27.1849 31.7502 26.8226 31.8048 26.4711C31.8155 26.4272 31.8271 26.3941 31.8271 26.3395ZM32.0571 17.358C32.0902 17.5557 32.0248 17.7649 31.8817 17.9503C31.6402 18.2695 31.1571 18.3026 30.784 18.0172C30.2017 17.5888 29.4332 17.0618 28.5225 16.8311C28.6209 16.9188 28.7302 17.018 28.8294 17.1157L28.9394 17.2157C29.0602 17.3249 29.1586 17.4234 29.2578 17.5118C29.3455 17.6103 29.4332 17.6872 29.5102 17.7757C30.1451 18.428 30.7185 19.1374 31.2232 19.8949C31.4209 20.1795 31.6186 20.498 31.8155 20.8164L32.2332 20.7395C32.8478 20.6303 33.5286 20.498 34.2202 20.3888C34.3632 20.3657 34.5048 20.3557 34.6709 20.3334L34.9555 20.2895C35.1317 20.268 35.2855 20.2564 35.4832 20.2564C35.5932 20.2564 35.7032 20.2564 35.8017 20.268H35.8894C36.0763 20.2788 36.2632 20.3118 36.4271 20.3888C36.7786 20.5534 37.0194 20.8495 37.1078 21.2341C37.2071 21.7172 36.9986 22.2218 36.5486 22.5295L36.2948 22.7049C36.0871 22.848 35.8894 22.9795 35.6917 23.1226C35.5901 23.1919 35.4913 23.2653 35.3955 23.3426C35.3294 23.408 35.2632 23.4626 35.1978 23.518C34.8347 23.8293 34.5231 24.1961 34.2748 24.6049C34.1354 24.8231 34.011 25.0506 33.9025 25.2857L33.8255 25.4395C33.7224 25.6789 33.6343 25.9245 33.5617 26.1749C33.5178 26.3288 33.474 26.4934 33.4409 26.6472C33.3846 26.9551 33.3553 27.2673 33.3532 27.5803V27.8441C33.364 27.9649 33.3748 28.0857 33.3748 28.2057C33.3971 28.448 33.4302 28.6895 33.4625 28.9418L33.5071 29.238C33.5609 29.7872 33.3202 30.2703 32.8809 30.5118C32.706 30.6194 32.5047 30.6764 32.2994 30.6764C32.1225 30.6764 31.9586 30.6326 31.8048 30.5672C31.638 30.487 31.4887 30.3746 31.3655 30.2364L31.3109 30.1826C31.1463 30.0072 30.9378 29.7872 30.7725 29.5349L30.6086 29.2603C30.5239 29.1424 30.4433 29.0216 30.3671 28.898C29.9825 28.3049 29.6309 27.7011 29.3348 27.1957L29.0932 26.8011C28.7194 26.8772 28.3463 26.9318 28.0063 26.9649C27.1037 27.0824 26.1924 27.1194 25.2832 27.0757C25.1732 27.0757 25.0632 27.0641 24.9425 27.0426C24.7886 27.0426 24.6571 27.0195 24.4925 27.0095L24.3494 26.9864C24.2071 26.9864 24.064 26.9649 23.9217 26.9434C24.7009 27.4811 25.6017 27.7226 26.314 27.8772C26.7755 27.9757 27.0617 28.3488 26.9848 28.7441C26.8971 29.2057 26.5348 29.458 26.0186 29.3588C24.9532 29.1611 24.064 28.8318 23.2725 28.338C22.5378 27.8764 21.9778 27.3495 21.594 26.7349C21.5171 26.6034 21.4286 26.4603 21.3632 26.318C21.3525 26.2849 21.3302 26.2518 21.3302 26.2295C21.0009 26.098 20.7817 25.9988 20.6825 25.9664L20.6386 25.9334C20.5402 25.8895 20.4632 25.8564 20.3971 25.8126C19.3657 25.2539 18.4872 24.4507 17.8386 23.4734C16.8617 22.0134 16.3671 20.3003 16.3455 18.3795L16.3125 18.2026C16.2909 17.9511 16.3125 17.7203 16.4109 17.5118C16.4225 17.4903 16.4332 17.4572 16.4555 17.4349C16.4555 17.4349 16.4555 17.4134 16.4771 17.3803C16.5648 17.1718 16.7186 16.9957 16.9271 16.8641L17.1032 16.7541C18.5417 15.5134 20.1663 14.7557 21.8902 14.5364C23.054 14.3718 24.2286 14.5134 25.3486 14.9203C25.4148 14.9426 25.5025 14.9757 25.5909 15.0195L25.634 15.0411C25.7332 15.0857 25.9525 15.1841 26.2602 15.3488C26.2932 15.3272 26.3263 15.3272 26.3594 15.3157C26.5232 15.2718 26.6663 15.2388 26.8202 15.2172C27.5448 15.1072 28.3025 15.1734 29.1371 15.4249C30.0263 15.7003 30.8717 16.1503 31.7171 16.8088C31.904 16.9741 32.0248 17.1495 32.0571 17.358ZM17.3332 12.7026C16.9271 13.6249 16.1471 14.4257 15.1809 14.8764C14.6124 15.1503 13.9897 15.2931 13.3586 15.2941C12.2056 15.2933 11.1 14.8349 10.2847 14.0196C9.46937 13.2043 9.01097 12.0987 9.01016 10.9457C9.01016 10.1111 9.35093 9.48568 9.614 8.99183C9.91093 8.45337 10.1194 8.05799 10.0217 7.42183C9.87785 6.51029 9.13093 4.54491 8.66016 3.64491C9.06476 3.30769 9.49793 3.0063 9.95477 2.74414C9.96554 2.75491 9.97785 2.77722 9.98785 2.78799C10.5478 3.79799 11.4148 6.04876 11.5802 7.19106C11.7555 8.34337 11.3386 9.1126 11.0086 9.71645C10.7894 10.1441 10.5917 10.5072 10.5917 10.9457C10.5923 11.6793 10.884 12.3827 11.4028 12.9015C11.9215 13.4203 12.625 13.712 13.3586 13.7126C13.7575 13.7144 14.1519 13.6288 14.5141 13.4619C14.8764 13.295 15.1977 13.0508 15.4555 12.7464L15.6094 12.5711C15.6202 12.5595 15.8617 12.1864 15.884 12.1649C15.7955 12.1418 15.4225 12.4834 15.1263 12.4495C14.874 12.4288 14.6648 12.3403 14.5225 12.198C14.2809 11.9672 14.2255 11.6272 14.3686 11.3088C14.7086 10.5834 15.1048 9.80414 15.5871 8.85953L15.8732 8.31106C16.0486 7.95953 16.4217 7.80568 16.8063 7.92645C17.2017 8.04722 17.4217 8.3326 17.4217 8.74953L17.4102 11.8903C17.4102 11.9341 17.4102 11.978 17.4209 12.0326C17.4209 12.2526 17.4317 12.4841 17.3332 12.7026Z" fill="#FEFEFE"/>
</g>
</svg>
